<?xml version="1.0" encoding="utf-8"?>
<!-- Generator: Adobe Illustrator 24.3.0, SVG Export Plug-In . SVG Version: 6.00 Build 0)  -->
<svg version="1.1" id="Calque_1" xmlns="http://www.w3.org/2000/svg" xmlns:xlink="http://www.w3.org/1999/xlink" x="0px" y="0px"
	 viewBox="0 0 345.3 355.8" style="enable-background:new 0 0 345.3 355.8;" xml:space="preserve">
<style type="text/css">
	.st0{fill:#BF2804;}
</style>
<g>
	<path class="st0" d="M251.7,172.7c-8.2-45.1-54.4-58.5-54.4-58.5L174.4,0l-22.8,115.9c0,0-4.5,1.1-10.9,3.5
		c-7.9,8.5-13.1,19.2-15.7,30.3c-3.1,13.3-2.7,27.3,1.4,40.1c4,12.7,12.4,24,24.1,29.6c5.8,2.9,12.2,4.2,18.8,4.6
		c6.7,0.4,13.3-0.1,19.5-1.8c6.2-1.8,11.8-4.9,16-9.4c4.2-4.5,7-10.4,8.2-16.7c1.2-6.3,1.1-12.9-0.3-19.3
		c-1.4-6.3-4.1-12.5-8.1-17.3c-2-2.4-4.4-4.3-7.1-5.4c-1.3-0.6-2.7-0.9-4.2-1c-1.5-0.1-3.2-0.1-4.7,0.1c-6.3,0.6-12.3,3.8-16,9.1
		c-3.7,5.1-5.2,12.3-2.9,18.5c1.1,3.1,3.2,5.8,5.9,7.9c2.7,2.1,6,3.4,9.4,4.2c-3.5-0.4-7-1.3-10.1-3.2c-3.1-1.9-5.7-4.6-7.3-8
		c-3.3-6.8-2.4-15.1,1.6-21.6c3.9-6.5,11.1-11,18.6-12.2c1.9-0.3,3.8-0.4,5.7-0.4c2.1,0,4.1,0.4,6,1.1c3.9,1.4,7.1,3.9,9.7,6.7
		c5.3,5.7,8.4,12.7,10.3,19.9c1.8,7.2,2.2,14.8,0.9,22.3c-1.4,7.4-4.6,14.8-9.9,20.5c-5.2,5.8-12.3,9.7-19.6,11.6
		c-7.3,2-14.8,2.4-22,1.9c-7.4-0.4-14.9-2.2-21.5-5.7c-6.7-3.5-12.5-8.5-17-14.5c-4.4-6-7.5-12.8-9.5-19.8c-2-7-2.8-14.3-2.6-21.5
		c0.2-7.2,1.3-14.4,3.4-21.2c3.3-10.8,9.1-20.9,17.2-28.6c-15.5,6.3-39.6,20-41.5,44.8L0,189.6l97.1,19.3c14.1,48,55,56.2,55,56.2
		l22.2,90.7l22.2-90.1c0,0,55.6-17.6,57.4-51.5l91.3-25.8L251.7,172.7z"/>
</g>
</svg>
