<?xml version="1.0" encoding="utf-8"?>
<!-- Generator: Adobe Illustrator 24.3.0, SVG Export Plug-In . SVG Version: 6.00 Build 0)  -->
<svg version="1.1" id="Calque_1" xmlns="http://www.w3.org/2000/svg" xmlns:xlink="http://www.w3.org/1999/xlink" x="0px" y="0px"
	 viewBox="0 0 172.4 354.5" style="enable-background:new 0 0 172.4 354.5;" xml:space="preserve">
<style type="text/css">
	.st0{fill:#009B8C;}
</style>
<g>
	<path class="st0" d="M152.4,212c-1.7-2-3.4-3.9-5.3-5.8c-6.9-4.4-14.5-7.6-22.4-9.4c-6.8-1.6-13.8-2.3-20.7-2
		c-6.9,0.3-13.8,1.3-20.3,3.4c-6.5,2.1-12.6,5.3-17.9,9.3c-5.2,4.2-9.5,9.4-12.4,15.3c-2.9,5.9-4.4,12.4-4.7,19.1
		c-0.4,6.8,0.1,13.6,1.8,20c1.7,6.3,5,12,9.6,16.4c4.7,4.3,10.6,7.2,17.1,8.4c6.4,1.4,13.2,1.1,19.8-0.3c6.5-1.5,12.8-4.1,17.7-8.3
		c2.4-2.1,4.5-4.5,5.6-7.3c0.3-0.7,0.4-1.4,0.7-2.1c0.2-0.7,0.2-1.5,0.3-2.2c0.1-1.6,0.1-3.3-0.1-4.9c-0.6-6.5-3.9-12.6-9.3-16.4
		c-5.3-3.9-12.6-5.3-18.9-2.9c-6.5,2.3-10.9,8.7-12.3,15.7c0.4-3.6,1.4-7.1,3.3-10.3c0.9-1.6,2.2-3,3.5-4.3c1.4-1.2,2.9-2.4,4.7-3.1
		c6.9-3.3,15.4-2.4,22,1.7c6.7,4,11.2,11.3,12.4,19c0.3,1.9,0.5,3.8,0.4,5.8c-0.1,1-0.1,2.1-0.3,3.1c-0.3,1-0.5,2-0.8,3
		c-1.4,3.9-4,7.2-6.8,9.9c-2.9,2.7-6.1,4.8-9.6,6.6c-3.5,1.7-7.1,3-10.8,3.9c-7.4,1.8-15.2,2.3-22.8,0.9c-1.9-0.3-3.8-0.9-5.7-1.4
		c-0.9-0.3-1.8-0.7-2.8-1l-1.4-0.5l-1.3-0.6c-3.6-1.6-6.9-4-9.8-6.6c-5.8-5.4-9.9-12.6-12-20c-2-7.5-2.5-15.1-1.9-22.6
		c0.5-7.5,2.1-15.3,5.8-22.1c3.6-6.9,8.8-12.8,14.9-17.4c6.1-4.6,13.1-7.7,20.3-9.7c14.4-4.1,29.7-3.4,43.8,0.8
		c5.9,1.8,11.7,4.4,16.9,7.7L86.2,0c0,0-7.7,15.7-18.4,39.8C63,50.6,57.6,63.2,52,76.8c-2.5,6-5,12.3-7.6,18.7
		c-2.5,6.4-5.1,12.9-7.6,19.6c-5.6,14.9-11,30.3-15.9,45.5c-2.1,6.7-4.2,13.4-6,20c-0.9,3.3-1.8,6.6-2.7,9.8
		c-0.8,3.2-1.7,6.5-2.4,9.6c-0.8,3.2-6.5,33.3-7.1,43.7c0,0.2-2.8,19.8-2.8,23.9c0,31.5,16.6,59.1,41.5,74.3c2.4,1.5,4.8,2.8,7.3,4
		c5,2.4,10.3,4.4,15.8,5.8c2.8,0.7,5.6,1.3,8.4,1.7c2.9,0.4,5.8,0.7,8.7,0.9c1.5,0.1,2.9,0.1,4.4,0.1c8.9,0,17.5-1.4,25.6-3.9
		c6.7-2.1,13.1-5,19.1-8.7c2.4-1.5,4.7-3,6.9-4.7c5.5-4.2,10.6-9,14.9-14.4c1.8-2.1,3.4-4.4,5-6.7c1.5-2.3,3-4.7,4.3-7.2
		c2-3.7,3.7-7.5,5.2-11.5c3.4-9.3,5.2-19.4,5.2-29.9C172.4,246.4,164.9,227.1,152.4,212z"/>
</g>
</svg>
