<?xml version="1.0" encoding="utf-8"?>
<!-- Generator: Adobe Illustrator 24.3.0, SVG Export Plug-In . SVG Version: 6.00 Build 0)  -->
<svg version="1.1" id="Calque_1" xmlns="http://www.w3.org/2000/svg" xmlns:xlink="http://www.w3.org/1999/xlink" x="0px" y="0px"
	 viewBox="0 0 358.1 356.1" style="enable-background:new 0 0 358.1 356.1;" xml:space="preserve">
<style type="text/css">
	.st0{fill:#83A008;}
</style>
<path class="st0" d="M321,154.2c0,0,34-22.4,23.2-50.2c-10.8-27.8-54.8-23.2-54.8-23.2s33.6-40.7,0-60.2
	C253.8,0,208.2,40.7,208.2,40.7s16.2-33.2-24.7-40.2C142.6-6.4,121,59.2,121,59.2s9.3-27-20.1-27.8c-86.5,28.6-42.5,122-42.5,122
	S9,113.9,1.2,163.5c-12.4,79.6,71.1,122,71.1,122s-44.2,14.4-23.9,41.7c42.5,57.2,139.8,9.3,139.8,9.3s-9.3,14.7,11.6,19.3
	c20.9,4.6,51.6-37.4,51.6-37.4s14.4-18.2,16.5-36.8c0.8-7.5,0.4-11.4,0.2-18.8c-0.3-7.4-1.4-14.8-3.7-21.8c-2.3-7-5.6-13.5-10-19.2
	c-4.5-5.6-10.1-10.2-16.4-13.3c-6.3-3.2-13.4-4.7-20.6-5.1c-7.3-0.5-14.7,0.1-21.5,2c-6.8,1.8-13,5.4-17.7,10.3
	c-4.6,5-7.7,11.4-9,18.4c-1.5,6.9-1.2,14.2,0.3,21.3c1.6,7,4.5,13.8,9,19.1c2.2,2.6,4.9,4.8,7.9,6c0.7,0.3,1.5,0.5,2.3,0.7
	c0.8,0.2,1.6,0.2,2.4,0.4c1.7,0.1,3.5,0.1,5.2-0.1c7-0.6,13.6-4.2,17.7-10.1c4.2-5.7,5.6-13.6,3.1-20.4c-2.4-7-9.4-11.7-16.9-13.3
	c3.8,0.4,7.7,1.5,11.1,3.5c1.7,1,3.2,2.3,4.6,3.8c1.3,1.5,2.5,3.2,3.4,5c3.6,7.4,2.6,16.6-1.8,23.6c-4.3,7.2-12.2,12.1-20.4,13.3
	c-2.1,0.3-4.1,0.5-6.3,0.5c-1.1-0.1-2.3-0.1-3.4-0.4c-1.1-0.3-2.2-0.5-3.2-0.9c-4.2-1.5-7.8-4.3-10.6-7.3c-2.9-3.1-5.2-6.6-7.1-10.3
	c-1.8-3.7-3.2-7.6-4.2-11.6c-1.9-8-2.5-16.3-0.9-24.5c0.3-2.1,0.9-4.1,1.5-6.1c0.3-1,0.7-2,1.1-3l0.6-1.5l0.7-1.4
	c1.7-3.9,4.3-7.4,7.1-10.6c5.8-6.3,13.5-10.7,21.5-12.9c8-2.2,16.3-2.7,24.3-2.1c8.1,0.5,16.4,2.3,23.8,6.2
	c7.4,3.9,13.8,9.5,18.7,16c4.9,6.6,8.3,14.1,10.5,21.9c4.4,15.5,3.7,32-0.8,47.1c-4.3,13.9-8.9,24-15.5,30.9l51.2-8.3
	c21.4-7.5,2.3-24.7,2.3-24.7s20.9,3.1,30.1-16.2c9.3-19.3-9.3-40.9-9.3-40.9s27.8-9.3,29.4-34.8C359.6,166.6,321,154.2,321,154.2z"
	/>
</svg>
